<?xml version="1.0" standalone="no"?>
<!DOCTYPE svg PUBLIC "-//W3C//DTD SVG 20010904//EN"
 "http://www.w3.org/TR/2001/REC-SVG-20010904/DTD/svg10.dtd">
<svg version="1.0" xmlns="http://www.w3.org/2000/svg"
 width="280.000000pt" height="280.000000pt" viewBox="0 0 280.000000 280.000000"
 preserveAspectRatio="xMidYMid meet">

<g transform="translate(0.000000,280.000000) scale(0.100000,-0.100000)"
fill="#000000" stroke="none">
<path d="M1170 2744 c-159 -22 -361 -103 -524 -211 -123 -81 -298 -253 -374
-368 -67 -101 -133 -236 -167 -341 -85 -267 -85 -574 1 -833 244 -736 1026
-1117 1756 -855 304 109 583 354 731 641 54 104 112 270 133 379 17 90 19 367
3 479 -24 174 -132 424 -254 587 -203 270 -526 465 -864 522 -113 19 -306 19
-441 0z m429 -471 c102 -58 194 -113 204 -121 15 -14 17 -39 17 -257 0 -218
-2 -243 -17 -257 -37 -32 -388 -228 -409 -228 -12 0 -112 52 -222 115 -144 84
-202 122 -206 138 -11 40 -7 445 5 469 13 28 382 245 418 247 14 1 103 -44
210 -106z m22 -984 c29 -29 20 -65 -37 -160 -145 -240 -442 -606 -543 -671
-76 -48 -111 -35 -111 42 0 78 89 238 166 296 58 45 58 16 -1 -49 -62 -68
-121 -179 -131 -244 -6 -40 -5 -43 16 -43 31 0 176 147 306 310 96 121 264
362 298 427 18 35 21 79 7 88 -6 3 -43 -1 -83 -10 -131 -27 -288 -116 -401
-226 -47 -45 -58 -61 -52 -78 7 -23 -4 -28 -23 -9 -21 21 -14 38 41 95 68 72
153 133 258 182 147 70 252 88 290 50z m114 -98 c3 -6 -1 -13 -9 -18 -27 -16
-125 -164 -180 -275 -55 -110 -56 -112 -22 -74 71 78 136 110 136 66 0 -11
-14 -48 -31 -81 -17 -34 -28 -63 -25 -66 7 -7 86 39 168 98 37 27 72 49 78 49
25 0 4 -23 -67 -75 -181 -133 -254 -135 -188 -5 14 27 25 53 25 57 -1 4 -41
-35 -90 -87 -71 -76 -91 -93 -101 -82 -11 10 2 42 64 166 120 241 215 370 242
327z"/>
<path d="M1190 2248 l-195 -113 -3 -240 -2 -240 191 -110 c106 -60 199 -111
208 -113 14 -2 358 188 399 221 9 7 12 65 10 246 l-3 235 -195 113 c-107 62
-200 113 -205 113 -6 0 -98 -51 -205 -112z m430 -50 l145 -84 2 -219 3 -220
-189 -108 -188 -107 -186 107 -187 108 1 220 0 220 186 107 187 106 41 -23
c22 -13 105 -61 185 -107z"/>
<path d="M1364 2256 c-21 -33 -234 -156 -268 -156 -31 0 -44 -24 -28 -51 16
-25 16 -283 0 -308 -16 -27 -3 -51 28 -51 36 0 254 -128 267 -157 13 -29 41
-29 60 0 20 31 239 157 272 157 30 0 43 25 27 51 -16 25 -16 283 0 308 16 27
3 51 -28 51 -36 0 -260 129 -273 158 -14 29 -37 28 -57 -2z m16 -113 l0 -78
-66 -36 -67 -36 -63 36 c-35 20 -63 39 -61 43 2 9 237 147 250 148 4 0 7 -35
7 -77z m165 5 c68 -39 122 -75 119 -79 -2 -4 -31 -24 -63 -44 l-59 -35 -71 41
-71 41 0 67 c0 60 4 81 17 81 2 0 60 -32 128 -72z m-327 -160 c20 -10 22 -18
22 -98 l0 -88 68 -38 67 -39 3 -78 c2 -42 -1 -77 -5 -77 -5 0 -61 31 -126 68
-80 46 -123 77 -132 96 -11 21 -15 65 -15 165 0 76 3 141 6 144 4 4 25 -5 48
-19 23 -14 51 -30 64 -36z m472 -87 c0 -111 -3 -145 -16 -168 -19 -31 -247
-169 -264 -158 -5 3 -10 37 -10 75 0 38 -4 72 -10 75 -5 3 -10 42 -10 85 l0
80 -42 26 c-83 51 -90 56 -85 61 3 2 36 -13 74 -33 l70 -38 62 37 c34 20 67
37 72 37 21 0 -3 -19 -66 -55 l-65 -36 0 -85 c0 -47 4 -84 8 -82 5 2 38 21 75
43 l67 39 0 86 0 85 58 32 c31 18 63 33 70 33 9 0 12 -34 12 -139z"/>
</g>
</svg>
